<svg xmlns="http://www.w3.org/2000/svg" xmlns:xlink="http://www.w3.org/1999/xlink" width="40" zoomAndPan="magnify" viewBox="0 0 30 30.000001" height="40" preserveAspectRatio="xMidYMid meet" version="1.0"><defs><clipPath id="536f351bc7"><path d="M 2.292969 5.113281 L 27.699219 5.113281 L 27.699219 23.984375 L 2.292969 23.984375 Z M 2.292969 5.113281 " clip-rule="nonzero"/></clipPath></defs><path fill="#FFFFFF" d="M 5.894531 14.273438 L 5.398438 13.410156 L 4.898438 14.273438 L 5.398438 15.105469 Z M 5.894531 14.273438 " fill-opacity="1" fill-rule="nonzero"/><path fill="#FFFFFF" d="M 11.546875 12.214844 L 11.078125 11.351562 L 10.578125 12.214844 L 11.078125 13.046875 Z M 11.546875 12.214844 " fill-opacity="1" fill-rule="nonzero"/><path fill="#FFFFFF" d="M 25.09375 14.273438 L 24.59375 13.410156 L 24.097656 14.273438 L 24.59375 15.105469 Z M 25.09375 14.273438 " fill-opacity="1" fill-rule="nonzero"/><path fill="#FFFFFF" d="M 19.414062 12.214844 L 18.917969 11.351562 L 18.445312 12.214844 L 18.917969 13.046875 Z M 19.414062 12.214844 " fill-opacity="1" fill-rule="nonzero"/><g clip-path="url(#536f351bc7)"><path fill="#FFFFFF" d="M 23.875 17.832031 L 22.074219 11.851562 L 18.667969 16.328125 L 15.453125 9.933594 L 16.421875 7.988281 L 15.011719 5.152344 L 13.570312 7.988281 L 14.539062 9.933594 L 11.324219 16.300781 L 7.972656 11.851562 L 6.171875 17.859375 L 2.292969 13.382812 L 4.953125 21.835938 L 4.980469 21.890625 L 4.980469 23.945312 L 25.011719 23.945312 L 25.011719 21.890625 L 25.066406 21.75 L 27.699219 13.382812 Z M 24.070312 21.417969 L 21.878906 21.417969 L 23.515625 19.527344 Z M 21.742188 13.660156 L 23.238281 18.582031 L 21.078125 21.082031 L 19.109375 17.164062 Z M 20.300781 21.417969 L 15.867188 21.417969 L 18.527344 17.914062 Z M 14.484375 7.988281 L 14.984375 7.015625 L 15.480469 7.988281 L 14.984375 8.988281 Z M 15.011719 10.851562 L 18.113281 17.050781 L 15.011719 21.167969 L 11.90625 17.023438 Z M 6.503906 19.554688 L 8.113281 21.417969 L 5.953125 21.417969 Z M 14.152344 21.417969 L 9.691406 21.417969 L 11.464844 17.859375 Z M 8.304688 13.660156 L 10.910156 17.109375 L 8.945312 21.082031 L 6.808594 18.609375 Z M 4.289062 16.996094 L 5.867188 18.804688 L 5.371094 20.417969 Z M 24.179688 23.113281 L 5.8125 23.113281 L 5.8125 22.25 L 24.179688 22.25 Z M 24.621094 20.359375 L 24.152344 18.777344 L 25.703125 16.996094 Z M 24.621094 20.359375 " fill-opacity="1" fill-rule="nonzero"/></g></svg>